<svg xmlns="http://www.w3.org/2000/svg" height="48" width="48" viewBox="0 0 48 48"><title>p share</title><g class="nc-icon-wrapper"><path d="M32,1H10A5.006,5.006,0,0,0,5,6V42a5.006,5.006,0,0,0,5,5s15.457-.023,22.949-.041a4,4,0,0,0,3.984-3.993L37,6A5.006,5.006,0,0,0,32,1Z" fill="#444"></path><path d="M34,40H8a1,1,0,0,1-1-1V7A1,1,0,0,1,8,6H34a1,1,0,0,1,1,1V39A1,1,0,0,1,34,40Z" fill="#b7e3fc"></path><path d="M44.5,40a3.478,3.478,0,0,0-2.369.938l-5.244-3.1a3.179,3.179,0,0,0,0-1.68l5.244-3.1a3.594,3.594,0,1,0-1.018-1.722l-5.244,3.1a3.5,3.5,0,1,0,0,5.124l5.244,3.1A3.494,3.494,0,1,0,44.5,40Z" fill="#ea9860"></path></g></svg>